<svg width="40" height="40" viewBox="0 0 40 40" fill="none" xmlns="http://www.w3.org/2000/svg">
<path fill-rule="evenodd" clip-rule="evenodd" d="M21.0715 23.5714H18.9286C17.1565 23.5714 15.7144 22.1293 15.7144 20.3571V20H17.1429V20.3571C17.1429 21.3421 17.9436 22.1429 18.9286 22.1429H21.0715C22.0565 22.1429 22.8572 21.3421 22.8572 20.3571C22.8572 19.3721 22.0565 18.5714 21.0715 18.5714H18.9286C17.1565 18.5714 15.7144 17.1293 15.7144 15.3571C15.7144 13.585 17.1565 12.1429 18.9286 12.1429H21.0715C22.8436 12.1429 24.2858 13.585 24.2858 15.3571V15.7143H22.8572V15.3571C22.8572 14.3721 22.0565 13.5714 21.0715 13.5714H18.9286C17.9436 13.5714 17.1429 14.3721 17.1429 15.3571C17.1429 16.3421 17.9436 17.1429 18.9286 17.1429H21.0715C22.8436 17.1429 24.2858 18.585 24.2858 20.3571C24.2858 22.1293 22.8436 23.5714 21.0715 23.5714" fill="#0B70B7"/>
<mask id="mask0" mask-type="alpha" maskUnits="userSpaceOnUse" x="0" y="0" width="40" height="40">
<path fill-rule="evenodd" clip-rule="evenodd" d="M0 40H40V0H0V40Z" fill="white"/>
</mask>
<g mask="url(#mask0)">
<path fill-rule="evenodd" clip-rule="evenodd" d="M19.2858 12.8571H20.7143V10.7143H19.2858V12.8571Z" fill="#0B70B7"/>
<path fill-rule="evenodd" clip-rule="evenodd" d="M19.2858 25H20.7143V22.8571H19.2858V25Z" fill="#0B70B7"/>
<path fill-rule="evenodd" clip-rule="evenodd" d="M10.0001 25H8.57153V2.14286C8.57153 0.961429 9.53296 0 10.7144 0H29.2858C30.4672 0 31.4287 0.961429 31.4287 2.14286V6.02714H30.0001V2.14286C30.0001 1.74857 29.6801 1.42857 29.2858 1.42857H10.7144C10.3201 1.42857 10.0001 1.74857 10.0001 2.14286V25Z" fill="#0B70B7"/>
<path fill-rule="evenodd" clip-rule="evenodd" d="M29.2858 40H10.7144C9.53296 40 8.57153 39.0386 8.57153 37.8571V34.6871H10.0001V37.8571C10.0001 38.2514 10.3201 38.5714 10.7144 38.5714H29.2858C29.6801 38.5714 30.0001 38.2514 30.0001 37.8571V15.7143H31.4287V37.8571C31.4287 39.0386 30.4672 40 29.2858 40" fill="#0B70B7"/>
<path fill-rule="evenodd" clip-rule="evenodd" d="M15.1936 34.2857H30.7143V32.8571H15.1936V34.2857Z" fill="#0B70B7"/>
<path fill-rule="evenodd" clip-rule="evenodd" d="M3.97613 8.66979L2.76685 7.90979C3.13827 7.31765 3.54827 6.74979 3.98613 6.22122L5.08685 7.13265C4.68827 7.61336 4.31542 8.13051 3.97613 8.66979" fill="#B6D4E9"/>
<path fill-rule="evenodd" clip-rule="evenodd" d="M2.34306 12.1415L0.98877 11.6879C1.18163 11.1094 1.4052 10.5394 1.64948 9.99435L2.95306 10.5815C2.72663 11.0829 2.52163 11.6072 2.34306 12.1415" fill="#B6D4E9"/>
<path fill-rule="evenodd" clip-rule="evenodd" d="M15.0001 36.4286C14.9008 36.4286 14.803 36.4179 14.7087 36.3986L6.88941 34.9771C6.20869 34.855 5.71441 34.2643 5.71441 33.5714C5.71441 33.2229 5.84226 32.8857 6.07369 32.6243L6.63369 31.9836C2.52226 29.0293 0.00012207 23.7007 0.00012207 17.8571C0.00012207 16.68 0.103694 15.505 0.307265 14.3657L1.71298 14.6171C1.52441 15.6736 1.42869 16.7636 1.42869 17.8571C1.42869 23.5336 3.97869 28.6621 8.08441 31.2393L8.79441 31.6843L7.14655 33.5671L14.9844 34.9971L14.993 34.9943L12.143 27.8564L10.1637 30.1286L9.63441 29.7464C6.33512 27.3607 4.28584 22.805 4.28584 17.8571C4.28584 16.9686 4.35155 16.0807 4.48012 15.2186L5.89369 15.4307C5.77441 16.2229 5.71441 17.0393 5.71441 17.8571C5.71441 22.0871 7.32655 25.975 9.95869 28.1878L11.0701 26.9136C11.3466 26.6029 11.7358 26.4286 12.143 26.4286C12.7673 26.4286 13.3216 26.8386 13.5066 27.4307L16.3794 34.6271C16.4123 34.7471 16.4287 34.8728 16.4287 35C16.4287 35.7878 15.788 36.4286 15.0001 36.4286" fill="#0B70B7"/>
<path fill-rule="evenodd" clip-rule="evenodd" d="M6.29466 13.5505L4.91895 13.1655C5.08823 12.5626 5.2918 11.9719 5.52323 11.4091L6.84466 11.9534C6.63395 12.4641 6.44895 13.0019 6.29466 13.5505" fill="#B6D4E9"/>
<path fill-rule="evenodd" clip-rule="evenodd" d="M36.0143 34.4929L34.9136 33.5822C35.3121 33.1008 35.685 32.5836 36.0243 32.0444L37.2336 32.8051C36.8621 33.3965 36.4514 33.9644 36.0143 34.4929" fill="#B6D4E9"/>
<path fill-rule="evenodd" clip-rule="evenodd" d="M38.3503 30.7199L37.0475 30.1328C37.2675 29.6435 37.4675 29.1364 37.6396 28.6256L38.9925 29.0821C38.8061 29.6371 38.5896 30.1885 38.3503 30.7199" fill="#B6D4E9"/>
<path fill-rule="evenodd" clip-rule="evenodd" d="M39.698 26.3212L38.2915 26.0727C38.4772 25.0227 38.5715 23.9412 38.5715 22.8569C38.5715 17.1805 36.0215 12.0519 31.9151 9.47479L31.2058 9.02979L32.8537 7.14694L25.0158 5.71694L25.0072 5.71979L27.8572 12.8576L29.8365 10.5862L30.3658 10.9684C33.6651 13.3541 35.7144 17.9098 35.7144 22.8569C35.7144 23.7462 35.6487 24.6341 35.5194 25.4962L34.1065 25.2841C34.2258 24.4912 34.2858 23.6748 34.2858 22.8569C34.2858 18.6276 32.6737 14.7391 30.0408 12.5269L28.9301 13.8012C28.6537 14.1112 28.2644 14.2855 27.8572 14.2855C27.233 14.2855 26.678 13.8755 26.4937 13.2834L23.6208 6.08765C23.588 5.96694 23.5715 5.84122 23.5715 5.71408C23.5715 4.92694 24.2122 4.28551 25.0001 4.28551C25.0994 4.28551 25.1972 4.29622 25.2915 4.31551L33.1108 5.73765C33.7908 5.85979 34.2858 6.45051 34.2858 7.14265C34.2858 7.49194 34.158 7.82836 33.9265 8.09051L33.3665 8.73051C37.478 11.6855 40.0001 17.0141 40.0001 22.8569C40.0001 24.0241 39.898 25.1898 39.698 26.3212" fill="#0B70B7"/>
<path fill-rule="evenodd" clip-rule="evenodd" d="M34.4768 29.3053L33.1554 28.761C33.3661 28.2496 33.5511 27.7124 33.7054 27.1638L35.0811 27.5488C34.9118 28.1517 34.7083 28.7424 34.4768 29.3053" fill="#B6D4E9"/>
</g>
</svg>
