<svg width="38" height="40" viewBox="0 0 38 40" fill="none" xmlns="http://www.w3.org/2000/svg">
<path fill-rule="evenodd" clip-rule="evenodd" d="M18.9998 4.28572C17.4474 4.28572 16.185 5.56715 16.185 7.14286C16.185 8.71858 17.4474 10 18.9998 10C20.5529 10 21.8146 8.71858 21.8146 7.14286C21.8146 5.56715 20.5529 4.28572 18.9998 4.28572ZM18.9998 11.4286C16.6713 11.4286 14.7776 9.50643 14.7776 7.14286C14.7776 4.77929 16.6713 2.85715 18.9998 2.85715C21.3284 2.85715 23.222 4.77929 23.222 7.14286C23.222 9.50643 21.3284 11.4286 18.9998 11.4286Z" fill="#0B70B7"/>
<path fill-rule="evenodd" clip-rule="evenodd" d="M31.6666 1.42857C30.1142 1.42857 28.8517 2.71 28.8517 4.28571C28.8517 5.86143 30.1142 7.14286 31.6666 7.14286C33.2196 7.14286 34.4814 5.86143 34.4814 4.28571C34.4814 2.71 33.2196 1.42857 31.6666 1.42857ZM31.6666 8.57143C29.338 8.57143 27.4443 6.64929 27.4443 4.28571C27.4443 1.92214 29.338 0 31.6666 0C33.9951 0 35.8888 1.92214 35.8888 4.28571C35.8888 6.64929 33.9951 8.57143 31.6666 8.57143Z" fill="#0B70B7"/>
<path fill-rule="evenodd" clip-rule="evenodd" d="M6.33318 1.42857C4.78081 1.42857 3.51837 2.71 3.51837 4.28571C3.51837 5.86143 4.78081 7.14286 6.33318 7.14286C7.88626 7.14286 9.148 5.86143 9.148 4.28571C9.148 2.71 7.88626 1.42857 6.33318 1.42857ZM6.33318 8.57143C4.00463 8.57143 2.11096 6.64929 2.11096 4.28571C2.11096 1.92214 4.00463 0 6.33318 0C8.66174 0 10.5554 1.92214 10.5554 4.28571C10.5554 6.64929 8.66174 8.57143 6.33318 8.57143Z" fill="#0B70B7"/>
<mask id="mask0" mask-type="alpha" maskUnits="userSpaceOnUse" x="0" y="0" width="38" height="40">
<path fill-rule="evenodd" clip-rule="evenodd" d="M0 40H38V0H0V40Z" fill="white"/>
</mask>
<g mask="url(#mask0)">
<path fill-rule="evenodd" clip-rule="evenodd" d="M12.6667 38.5714H36.5926V27.1429H12.6667V38.5714ZM11.2593 40H38V25.7143H11.2593V40Z" fill="#0B70B7"/>
<path fill-rule="evenodd" clip-rule="evenodd" d="M24.6294 30C23.0771 30 21.8146 31.2814 21.8146 32.8571C21.8146 34.4329 23.0771 35.7143 24.6294 35.7143C26.1825 35.7143 27.4443 34.4329 27.4443 32.8571C27.4443 31.2814 26.1825 30 24.6294 30ZM24.6294 37.1429C22.3009 37.1429 20.4072 35.2207 20.4072 32.8571C20.4072 30.4936 22.3009 28.5714 24.6294 28.5714C26.958 28.5714 28.8517 30.4936 28.8517 32.8571C28.8517 35.2207 26.958 37.1429 24.6294 37.1429Z" fill="#B6D4E9"/>
<path fill-rule="evenodd" clip-rule="evenodd" d="M14.7778 33.5714H16.1852V32.1429H14.7778V33.5714Z" fill="#B6D4E9"/>
<path fill-rule="evenodd" clip-rule="evenodd" d="M17.5927 33.5714H19.0001V32.1429H17.5927V33.5714Z" fill="#B6D4E9"/>
<path fill-rule="evenodd" clip-rule="evenodd" d="M30.2593 33.5714H31.6667V32.1429H30.2593V33.5714Z" fill="#B6D4E9"/>
<path fill-rule="evenodd" clip-rule="evenodd" d="M33.0741 33.5714H34.4815V32.1429H33.0741V33.5714Z" fill="#B6D4E9"/>
<path fill-rule="evenodd" clip-rule="evenodd" d="M37.2961 24.2857H35.8887V12.8571C35.8887 12.0693 35.2575 11.4286 34.4813 11.4286H34.0675L31.6665 13.8679L29.2662 11.4286H28.8517C28.0762 11.4286 27.4443 12.0693 27.4443 12.8571V24.2857H26.0369V12.8571C26.0369 11.2814 27.2993 10 28.8517 10H29.8488L31.6665 11.8464L33.4849 10H34.4813C36.0344 10 37.2961 11.2814 37.2961 12.8571V24.2857Z" fill="#0B70B7"/>
<path fill-rule="evenodd" clip-rule="evenodd" d="M11.9629 24.2857H10.5555V12.8571C10.5555 12.0693 9.92424 11.4286 9.14806 11.4286H8.73428L6.33324 13.8679L3.93291 11.4286H3.51843C2.74295 11.4286 2.11102 12.0693 2.11102 12.8571V24.2857H0.703613V12.8571C0.703613 11.2814 1.96606 10 3.51843 10H4.51558L6.33324 11.8464L8.15161 10H9.14806C10.7011 10 11.9629 11.2814 11.9629 12.8571V24.2857Z" fill="#0B70B7"/>
<path fill-rule="evenodd" clip-rule="evenodd" d="M24.6295 24.2857H23.2221V15.7143C23.2221 14.9264 22.5909 14.2857 21.8147 14.2857H21.4009L18.9999 16.725L16.5995 14.2857H16.1851C15.4096 14.2857 14.7776 14.9264 14.7776 15.7143V24.2857H13.3702V15.7143C13.3702 14.1386 14.6327 12.8571 16.1851 12.8571H17.1822L18.9999 14.7036L20.8182 12.8571H21.8147C23.3678 12.8571 24.6295 14.1386 24.6295 15.7143V24.2857Z" fill="#0B70B7"/>
</g>
</svg>
