<svg width="25" height="25" viewBox="0 0 25 25" fill="none" xmlns="http://www.w3.org/2000/svg">
<path fill-rule="evenodd" clip-rule="evenodd" d="M12.5 25C19.4036 25 25 19.4036 25 12.5C25 5.59644 19.4036 0 12.5 0C5.59644 0 0 5.59644 0 12.5C0 19.4036 5.59644 25 12.5 25Z" fill="#006FBB"/>
<path fill-rule="evenodd" clip-rule="evenodd" d="M12.5 23.7805C18.73 23.7805 23.7805 18.73 23.7805 12.5C23.7805 6.26996 18.73 1.21951 12.5 1.21951C6.26993 1.21951 1.21948 6.26996 1.21948 12.5C1.21948 18.73 6.26993 23.7805 12.5 23.7805Z" fill="white"/>
<path fill-rule="evenodd" clip-rule="evenodd" d="M11.8186 5.48781V8.10007H6.40247V15.555H8.00895V14.7148H11.8186V19.8171H13.471V14.7148H17.296V15.555H18.9025V8.10007H13.471V5.48781H11.8186ZM7.92686 13.1098V9.7561H11.5854V13.1098H7.92686ZM13.4147 9.7561V13.1098H17.3781V9.7561H13.4147Z" fill="#006FBB"/>
</svg>
