<svg width="25" height="19" viewBox="0 0 25 19" fill="none" xmlns="http://www.w3.org/2000/svg">
<path fill-rule="evenodd" clip-rule="evenodd" d="M0.00762743 17.1049C-0.119982 16.818 1.2839 9.26698 9.52363 3.83101C17.7634 -1.60497 24.9248 0.377578 24.9528 0.252399C24.9763 0.14731 24.9947 4.53802 25 5.9494C25.0009 6.19792 24.8214 6.41069 24.5755 6.45255C23.0899 6.70553 18.2283 7.53337 18.2283 7.53337L15.8425 5.03814C15.8425 5.03814 14.1423 5.41883 11.758 7.11307C9.37362 8.80727 7.84119 10.4437 7.84119 10.4437L9.28567 13.5748C9.28567 13.5748 7.08656 17.4801 6.3864 18.7234C6.26261 18.9433 6.00287 19.0489 5.75999 18.9782C4.39091 18.5784 0.0992409 17.3108 0.00762743 17.1049Z" fill="#006FBB"/>
</svg>
