<svg width="48" height="40" viewBox="0 0 48 40" fill="none" xmlns="http://www.w3.org/2000/svg">
<path fill-rule="evenodd" clip-rule="evenodd" d="M47.2876 15.6404L45.8899 15.9554C46.0303 16.5754 46.102 17.2147 46.102 17.8575C46.102 22.5839 42.2455 26.4289 37.5049 26.4289C32.7644 26.4289 28.9079 22.5839 28.9079 17.8575C28.9079 13.1304 32.7644 9.28608 37.5049 9.28608C39.3454 9.28608 41.0999 9.8568 42.5801 10.9375L43.4269 9.78537C41.6989 8.52394 39.6513 7.85751 37.5049 7.85751C31.9742 7.85751 27.4751 12.3432 27.4751 17.8575C27.4751 23.3711 31.9742 27.8575 37.5049 27.8575C43.0357 27.8575 47.5348 23.3711 47.5348 17.8575C47.5348 17.1089 47.4517 16.3632 47.2876 15.6404Z" fill="#0B70B7"/>
<path fill-rule="evenodd" clip-rule="evenodd" d="M46.3236 13.0908C46.098 12.6751 45.8372 12.2694 45.5506 11.8851L44.4015 12.7387C44.6472 13.068 44.8707 13.4151 45.0642 13.7716L46.3236 13.0908Z" fill="#0B70B7"/>
<path fill-rule="evenodd" clip-rule="evenodd" d="M16.729 7.14286C16.729 7.55071 16.9045 7.94 17.2104 8.21L23.6575 13.9243C23.9204 14.1571 24.2586 14.2857 24.6096 14.2857C25.3998 14.2857 26.0424 13.645 26.0424 12.8571V10.7143H28.9081V9.28571H24.6096V12.8571L18.1618 7.14214L24.6096 1.42857V5H40.3708V3.57143H26.0424V1.42857C26.0424 0.640714 25.3998 0 24.6096 0C24.2578 0 23.9197 0.128571 23.6582 0.360714L17.2097 6.075C16.9038 6.34643 16.729 6.73571 16.729 7.14286Z" fill="#0B70B7"/>
<mask id="mask0" mask-type="alpha" maskUnits="userSpaceOnUse" x="0" y="0" width="48" height="40">
<path fill-rule="evenodd" clip-rule="evenodd" d="M0 40H47.535V0H0V40Z" fill="white"/>
</mask>
<g mask="url(#mask0)">
<path fill-rule="evenodd" clip-rule="evenodd" d="M41.8037 5H43.2365V3.57143H41.8037V5Z" fill="#B6D4E9"/>
<path fill-rule="evenodd" clip-rule="evenodd" d="M44.6687 5H46.1015V3.57143H44.6687V5Z" fill="#B6D4E9"/>
<path fill-rule="evenodd" clip-rule="evenodd" d="M28.4274 26.0749C28.1652 25.8428 27.8271 25.7142 27.4753 25.7142C26.6851 25.7142 26.0425 26.3556 26.0425 27.1428V29.2856H23.1768V30.7142H27.4753V27.1421L33.9231 32.8571L27.4753 38.5713V34.9999H11.7141V36.4285H26.0425V38.5713C26.0425 39.3592 26.6851 39.9999 27.4753 39.9999C27.8264 39.9999 28.1645 39.8713 28.4267 39.6385L34.8738 33.9249C35.4863 33.3842 35.4877 32.3328 34.8745 31.7892L28.4274 26.0749Z" fill="#0B70B7"/>
<path fill-rule="evenodd" clip-rule="evenodd" d="M8.84851 36.4286H10.2813V35H8.84851V36.4286Z" fill="#B6D4E9"/>
<path fill-rule="evenodd" clip-rule="evenodd" d="M5.98279 36.4286H7.41562V35H5.98279V36.4286Z" fill="#B6D4E9"/>
<path fill-rule="evenodd" clip-rule="evenodd" d="M8.84851 2.14285H10.2813V0.714279H8.84851V2.14285Z" fill="#B6D4E9"/>
<path fill-rule="evenodd" clip-rule="evenodd" d="M11.7141 2.14285H17.4455V0.714279H11.7141V2.14285Z" fill="#B6D4E9"/>
<path fill-rule="evenodd" clip-rule="evenodd" d="M5.98279 6.42857H7.41562V5H5.98279V6.42857Z" fill="#B6D4E9"/>
<path fill-rule="evenodd" clip-rule="evenodd" d="M8.84851 6.42857H10.2813V5H8.84851V6.42857Z" fill="#B6D4E9"/>
<path fill-rule="evenodd" clip-rule="evenodd" d="M8.13208 10.7143H14.5798V9.28571H8.13208V10.7143Z" fill="#B6D4E9"/>
<path fill-rule="evenodd" clip-rule="evenodd" d="M45.3851 29.2857H46.818V27.8571H45.3851V29.2857Z" fill="#B6D4E9"/>
<path fill-rule="evenodd" clip-rule="evenodd" d="M42.5201 29.2857H43.953V27.8571H42.5201V29.2857Z" fill="#B6D4E9"/>
<path fill-rule="evenodd" clip-rule="evenodd" d="M38.938 33.5714H43.9529V32.1429H38.938V33.5714Z" fill="#B6D4E9"/>
<path fill-rule="evenodd" clip-rule="evenodd" d="M44.6687 38.5714H46.1015V37.1429H44.6687V38.5714Z" fill="#B6D4E9"/>
<path fill-rule="evenodd" clip-rule="evenodd" d="M36.7888 38.5714H43.2366V37.1429H36.7888V38.5714Z" fill="#B6D4E9"/>
<path fill-rule="evenodd" clip-rule="evenodd" d="M36.0405 15.1186H38.5845C38.9356 15.1186 39.22 15.4022 39.22 15.7529H40.4923C40.4923 14.7036 39.6362 13.8508 38.5845 13.8508H37.9483V12.5822H36.6767V13.8508H36.0405C34.9881 13.8508 34.1327 14.7036 34.1327 15.7529V16.3865C34.1327 17.4351 34.9881 18.2886 36.0405 18.2886H38.5845C38.9356 18.2886 39.22 18.5729 39.22 18.9229V19.5572C39.22 19.9065 38.9356 20.1915 38.5845 20.1915H36.0405C35.6895 20.1915 35.4043 19.9065 35.4043 19.5572H34.1327C34.1327 20.6058 34.9881 21.4594 36.0405 21.4594H36.6767V22.7272H37.9483V21.4594H38.5845C39.6362 21.4594 40.4923 20.6058 40.4923 19.5572V18.9229C40.4923 17.8736 39.6362 17.0208 38.5845 17.0208H36.0405C35.6895 17.0208 35.4043 16.7365 35.4043 16.3865V15.7529C35.4043 15.4022 35.6895 15.1186 36.0405 15.1186Z" fill="#0B70B7"/>
<path fill-rule="evenodd" clip-rule="evenodd" d="M10.9432 31.5374L2.02591 22.6474L10.9432 13.756L12.5916 15.4003L5.32358 22.6474L12.5916 29.8939L10.9432 31.5374ZM14.6177 15.4003L16.2669 13.756L25.1834 22.6474L16.2669 31.5374L14.6177 29.8939L13.6047 28.8839L7.34961 22.6474L13.6047 16.4103L14.6177 15.4003ZM16.2669 33.5574L27.2101 22.6474L16.2669 11.736L13.6047 14.3903L10.9432 11.736L-0.00012207 22.6474L10.9432 33.5574L13.6047 30.9038L16.2669 33.5574Z" fill="#0B70B7"/>
</g>
</svg>
